<?xml version="1.0" encoding="utf-8" standalone="no"?>
<!DOCTYPE svg PUBLIC "-//W3C//DTD SVG 1.1//EN"
  "http://www.w3.org/Graphics/SVG/1.1/DTD/svg11.dtd">
<svg height="360pt" version="1.1" viewBox="0 0 504 360" width="504pt" xmlns="http://www.w3.org/2000/svg" xmlns:xlink="http://www.w3.org/1999/xlink">
 <metadata>
  <rdf:RDF xmlns:cc="http://creativecommons.org/ns#" xmlns:dc="http://purl.org/dc/elements/1.1/" xmlns:rdf="http://www.w3.org/1999/02/22-rdf-syntax-ns#">
   <cc:Work>
    <dc:type rdf:resource="http://purl.org/dc/dcmitype/StillImage"/>
    <dc:date>2023-11-20T13:21:59.242750</dc:date>
    <dc:format>image/svg+xml</dc:format>
    <dc:creator>
     <cc:Agent>
      <dc:title>Matplotlib v3.4.2, https://matplotlib.org/</dc:title>
     </cc:Agent>
    </dc:creator>
   </cc:Work>
  </rdf:RDF>
 </metadata>
 <defs>
  <style type="text/css">*{stroke-linecap:butt;stroke-linejoin:round;}</style>
 </defs>
 <g id="figure_1">
  <g id="patch_1">
   <path d="M 0 360 
L 504 360 
L 504 0 
L 0 0 
z
" style="fill:#ffffff;"/>
  </g>
  <g id="axes_1">
   <g id="patch_2">
    <path d="M 80.03 297.88 
L 489.536385 297.88 
L 489.536385 10.8 
L 80.03 10.8 
z
" style="fill:#ffffff;"/>
   </g>
   <g id="matplotlib.axis_1">
    <g id="xtick_1">
     <g id="line2d_1">
      <defs>
       <path d="M 0 0 
L 0 3.5 
" id="mdd02fb456f" style="stroke:#000000;stroke-width:0.8;"/>
      </defs>
      <g>
       <use style="stroke:#000000;stroke-width:0.8;" x="98.643927" xlink:href="#mdd02fb456f" y="297.88"/>
      </g>
     </g>
     <g id="text_1">
      <!-- 0 -->
      <g transform="translate(92.281427 320.076875)scale(0.2 -0.2)">
       <defs>
        <path d="M 2034 4250 
Q 1547 4250 1301 3770 
Q 1056 3291 1056 2328 
Q 1056 1369 1301 889 
Q 1547 409 2034 409 
Q 2525 409 2770 889 
Q 3016 1369 3016 2328 
Q 3016 3291 2770 3770 
Q 2525 4250 2034 4250 
z
M 2034 4750 
Q 2819 4750 3233 4129 
Q 3647 3509 3647 2328 
Q 3647 1150 3233 529 
Q 2819 -91 2034 -91 
Q 1250 -91 836 529 
Q 422 1150 422 2328 
Q 422 3509 836 4129 
Q 1250 4750 2034 4750 
z
" id="DejaVuSans-30" transform="scale(0.015625)"/>
       </defs>
       <use xlink:href="#DejaVuSans-30"/>
      </g>
     </g>
    </g>
    <g id="xtick_2">
     <g id="line2d_2">
      <g>
       <use style="stroke:#000000;stroke-width:0.8;" x="161.106767" xlink:href="#mdd02fb456f" y="297.88"/>
      </g>
     </g>
     <g id="text_2">
      <!-- 100 -->
      <g transform="translate(142.019267 320.076875)scale(0.2 -0.2)">
       <defs>
        <path d="M 794 531 
L 1825 531 
L 1825 4091 
L 703 3866 
L 703 4441 
L 1819 4666 
L 2450 4666 
L 2450 531 
L 3481 531 
L 3481 0 
L 794 0 
L 794 531 
z
" id="DejaVuSans-31" transform="scale(0.015625)"/>
       </defs>
       <use xlink:href="#DejaVuSans-31"/>
       <use x="63.623047" xlink:href="#DejaVuSans-30"/>
       <use x="127.246094" xlink:href="#DejaVuSans-30"/>
      </g>
     </g>
    </g>
    <g id="xtick_3">
     <g id="line2d_3">
      <g>
       <use style="stroke:#000000;stroke-width:0.8;" x="223.569608" xlink:href="#mdd02fb456f" y="297.88"/>
      </g>
     </g>
     <g id="text_3">
      <!-- 200 -->
      <g transform="translate(204.482108 320.076875)scale(0.2 -0.2)">
       <defs>
        <path d="M 1228 531 
L 3431 531 
L 3431 0 
L 469 0 
L 469 531 
Q 828 903 1448 1529 
Q 2069 2156 2228 2338 
Q 2531 2678 2651 2914 
Q 2772 3150 2772 3378 
Q 2772 3750 2511 3984 
Q 2250 4219 1831 4219 
Q 1534 4219 1204 4116 
Q 875 4013 500 3803 
L 500 4441 
Q 881 4594 1212 4672 
Q 1544 4750 1819 4750 
Q 2544 4750 2975 4387 
Q 3406 4025 3406 3419 
Q 3406 3131 3298 2873 
Q 3191 2616 2906 2266 
Q 2828 2175 2409 1742 
Q 1991 1309 1228 531 
z
" id="DejaVuSans-32" transform="scale(0.015625)"/>
       </defs>
       <use xlink:href="#DejaVuSans-32"/>
       <use x="63.623047" xlink:href="#DejaVuSans-30"/>
       <use x="127.246094" xlink:href="#DejaVuSans-30"/>
      </g>
     </g>
    </g>
    <g id="xtick_4">
     <g id="line2d_4">
      <g>
       <use style="stroke:#000000;stroke-width:0.8;" x="286.032449" xlink:href="#mdd02fb456f" y="297.88"/>
      </g>
     </g>
     <g id="text_4">
      <!-- 300 -->
      <g transform="translate(266.944949 320.076875)scale(0.2 -0.2)">
       <defs>
        <path d="M 2597 2516 
Q 3050 2419 3304 2112 
Q 3559 1806 3559 1356 
Q 3559 666 3084 287 
Q 2609 -91 1734 -91 
Q 1441 -91 1130 -33 
Q 819 25 488 141 
L 488 750 
Q 750 597 1062 519 
Q 1375 441 1716 441 
Q 2309 441 2620 675 
Q 2931 909 2931 1356 
Q 2931 1769 2642 2001 
Q 2353 2234 1838 2234 
L 1294 2234 
L 1294 2753 
L 1863 2753 
Q 2328 2753 2575 2939 
Q 2822 3125 2822 3475 
Q 2822 3834 2567 4026 
Q 2313 4219 1838 4219 
Q 1578 4219 1281 4162 
Q 984 4106 628 3988 
L 628 4550 
Q 988 4650 1302 4700 
Q 1616 4750 1894 4750 
Q 2613 4750 3031 4423 
Q 3450 4097 3450 3541 
Q 3450 3153 3228 2886 
Q 3006 2619 2597 2516 
z
" id="DejaVuSans-33" transform="scale(0.015625)"/>
       </defs>
       <use xlink:href="#DejaVuSans-33"/>
       <use x="63.623047" xlink:href="#DejaVuSans-30"/>
       <use x="127.246094" xlink:href="#DejaVuSans-30"/>
      </g>
     </g>
    </g>
    <g id="xtick_5">
     <g id="line2d_5">
      <g>
       <use style="stroke:#000000;stroke-width:0.8;" x="348.49529" xlink:href="#mdd02fb456f" y="297.88"/>
      </g>
     </g>
     <g id="text_5">
      <!-- 400 -->
      <g transform="translate(329.40779 320.076875)scale(0.2 -0.2)">
       <defs>
        <path d="M 2419 4116 
L 825 1625 
L 2419 1625 
L 2419 4116 
z
M 2253 4666 
L 3047 4666 
L 3047 1625 
L 3713 1625 
L 3713 1100 
L 3047 1100 
L 3047 0 
L 2419 0 
L 2419 1100 
L 313 1100 
L 313 1709 
L 2253 4666 
z
" id="DejaVuSans-34" transform="scale(0.015625)"/>
       </defs>
       <use xlink:href="#DejaVuSans-34"/>
       <use x="63.623047" xlink:href="#DejaVuSans-30"/>
       <use x="127.246094" xlink:href="#DejaVuSans-30"/>
      </g>
     </g>
    </g>
    <g id="xtick_6">
     <g id="line2d_6">
      <g>
       <use style="stroke:#000000;stroke-width:0.8;" x="410.958131" xlink:href="#mdd02fb456f" y="297.88"/>
      </g>
     </g>
     <g id="text_6">
      <!-- 500 -->
      <g transform="translate(391.870631 320.076875)scale(0.2 -0.2)">
       <defs>
        <path d="M 691 4666 
L 3169 4666 
L 3169 4134 
L 1269 4134 
L 1269 2991 
Q 1406 3038 1543 3061 
Q 1681 3084 1819 3084 
Q 2600 3084 3056 2656 
Q 3513 2228 3513 1497 
Q 3513 744 3044 326 
Q 2575 -91 1722 -91 
Q 1428 -91 1123 -41 
Q 819 9 494 109 
L 494 744 
Q 775 591 1075 516 
Q 1375 441 1709 441 
Q 2250 441 2565 725 
Q 2881 1009 2881 1497 
Q 2881 1984 2565 2268 
Q 2250 2553 1709 2553 
Q 1456 2553 1204 2497 
Q 953 2441 691 2322 
L 691 4666 
z
" id="DejaVuSans-35" transform="scale(0.015625)"/>
       </defs>
       <use xlink:href="#DejaVuSans-35"/>
       <use x="63.623047" xlink:href="#DejaVuSans-30"/>
       <use x="127.246094" xlink:href="#DejaVuSans-30"/>
      </g>
     </g>
    </g>
    <g id="xtick_7">
     <g id="line2d_7">
      <g>
       <use style="stroke:#000000;stroke-width:0.8;" x="473.420972" xlink:href="#mdd02fb456f" y="297.88"/>
      </g>
     </g>
     <g id="text_7">
      <!-- 600 -->
      <g transform="translate(454.333472 320.076875)scale(0.2 -0.2)">
       <defs>
        <path d="M 2113 2584 
Q 1688 2584 1439 2293 
Q 1191 2003 1191 1497 
Q 1191 994 1439 701 
Q 1688 409 2113 409 
Q 2538 409 2786 701 
Q 3034 994 3034 1497 
Q 3034 2003 2786 2293 
Q 2538 2584 2113 2584 
z
M 3366 4563 
L 3366 3988 
Q 3128 4100 2886 4159 
Q 2644 4219 2406 4219 
Q 1781 4219 1451 3797 
Q 1122 3375 1075 2522 
Q 1259 2794 1537 2939 
Q 1816 3084 2150 3084 
Q 2853 3084 3261 2657 
Q 3669 2231 3669 1497 
Q 3669 778 3244 343 
Q 2819 -91 2113 -91 
Q 1303 -91 875 529 
Q 447 1150 447 2328 
Q 447 3434 972 4092 
Q 1497 4750 2381 4750 
Q 2619 4750 2861 4703 
Q 3103 4656 3366 4563 
z
" id="DejaVuSans-36" transform="scale(0.015625)"/>
       </defs>
       <use xlink:href="#DejaVuSans-36"/>
       <use x="63.623047" xlink:href="#DejaVuSans-30"/>
       <use x="127.246094" xlink:href="#DejaVuSans-30"/>
      </g>
     </g>
    </g>
    <g id="text_8">
     <!-- Epoch -->
     <g transform="translate(254.161317 343.433125)scale(0.2 -0.2)">
      <defs>
       <path d="M 628 4666 
L 3578 4666 
L 3578 4134 
L 1259 4134 
L 1259 2753 
L 3481 2753 
L 3481 2222 
L 1259 2222 
L 1259 531 
L 3634 531 
L 3634 0 
L 628 0 
L 628 4666 
z
" id="DejaVuSans-45" transform="scale(0.015625)"/>
       <path d="M 1159 525 
L 1159 -1331 
L 581 -1331 
L 581 3500 
L 1159 3500 
L 1159 2969 
Q 1341 3281 1617 3432 
Q 1894 3584 2278 3584 
Q 2916 3584 3314 3078 
Q 3713 2572 3713 1747 
Q 3713 922 3314 415 
Q 2916 -91 2278 -91 
Q 1894 -91 1617 61 
Q 1341 213 1159 525 
z
M 3116 1747 
Q 3116 2381 2855 2742 
Q 2594 3103 2138 3103 
Q 1681 3103 1420 2742 
Q 1159 2381 1159 1747 
Q 1159 1113 1420 752 
Q 1681 391 2138 391 
Q 2594 391 2855 752 
Q 3116 1113 3116 1747 
z
" id="DejaVuSans-70" transform="scale(0.015625)"/>
       <path d="M 1959 3097 
Q 1497 3097 1228 2736 
Q 959 2375 959 1747 
Q 959 1119 1226 758 
Q 1494 397 1959 397 
Q 2419 397 2687 759 
Q 2956 1122 2956 1747 
Q 2956 2369 2687 2733 
Q 2419 3097 1959 3097 
z
M 1959 3584 
Q 2709 3584 3137 3096 
Q 3566 2609 3566 1747 
Q 3566 888 3137 398 
Q 2709 -91 1959 -91 
Q 1206 -91 779 398 
Q 353 888 353 1747 
Q 353 2609 779 3096 
Q 1206 3584 1959 3584 
z
" id="DejaVuSans-6f" transform="scale(0.015625)"/>
       <path d="M 3122 3366 
L 3122 2828 
Q 2878 2963 2633 3030 
Q 2388 3097 2138 3097 
Q 1578 3097 1268 2742 
Q 959 2388 959 1747 
Q 959 1106 1268 751 
Q 1578 397 2138 397 
Q 2388 397 2633 464 
Q 2878 531 3122 666 
L 3122 134 
Q 2881 22 2623 -34 
Q 2366 -91 2075 -91 
Q 1284 -91 818 406 
Q 353 903 353 1747 
Q 353 2603 823 3093 
Q 1294 3584 2113 3584 
Q 2378 3584 2631 3529 
Q 2884 3475 3122 3366 
z
" id="DejaVuSans-63" transform="scale(0.015625)"/>
       <path d="M 3513 2113 
L 3513 0 
L 2938 0 
L 2938 2094 
Q 2938 2591 2744 2837 
Q 2550 3084 2163 3084 
Q 1697 3084 1428 2787 
Q 1159 2491 1159 1978 
L 1159 0 
L 581 0 
L 581 4863 
L 1159 4863 
L 1159 2956 
Q 1366 3272 1645 3428 
Q 1925 3584 2291 3584 
Q 2894 3584 3203 3211 
Q 3513 2838 3513 2113 
z
" id="DejaVuSans-68" transform="scale(0.015625)"/>
      </defs>
      <use xlink:href="#DejaVuSans-45"/>
      <use x="63.183594" xlink:href="#DejaVuSans-70"/>
      <use x="126.660156" xlink:href="#DejaVuSans-6f"/>
      <use x="187.841797" xlink:href="#DejaVuSans-63"/>
      <use x="242.822266" xlink:href="#DejaVuSans-68"/>
     </g>
    </g>
   </g>
   <g id="matplotlib.axis_2">
    <g id="ytick_1">
     <g id="line2d_8">
      <defs>
       <path d="M 0 0 
L -3.5 0 
" id="m76989bbc3d" style="stroke:#000000;stroke-width:0.8;"/>
      </defs>
      <g>
       <use style="stroke:#000000;stroke-width:0.8;" x="80.03" xlink:href="#m76989bbc3d" y="284.830909"/>
      </g>
     </g>
     <g id="text_9">
      <!-- 0 -->
      <g transform="translate(60.305 292.429347)scale(0.2 -0.2)">
       <use xlink:href="#DejaVuSans-30"/>
      </g>
     </g>
    </g>
    <g id="ytick_2">
     <g id="line2d_9">
      <g>
       <use style="stroke:#000000;stroke-width:0.8;" x="80.03" xlink:href="#m76989bbc3d" y="232.634545"/>
      </g>
     </g>
     <g id="text_10">
      <!-- 20 -->
      <g transform="translate(47.58 240.232983)scale(0.2 -0.2)">
       <use xlink:href="#DejaVuSans-32"/>
       <use x="63.623047" xlink:href="#DejaVuSans-30"/>
      </g>
     </g>
    </g>
    <g id="ytick_3">
     <g id="line2d_10">
      <g>
       <use style="stroke:#000000;stroke-width:0.8;" x="80.03" xlink:href="#m76989bbc3d" y="180.438182"/>
      </g>
     </g>
     <g id="text_11">
      <!-- 40 -->
      <g transform="translate(47.58 188.036619)scale(0.2 -0.2)">
       <use xlink:href="#DejaVuSans-34"/>
       <use x="63.623047" xlink:href="#DejaVuSans-30"/>
      </g>
     </g>
    </g>
    <g id="ytick_4">
     <g id="line2d_11">
      <g>
       <use style="stroke:#000000;stroke-width:0.8;" x="80.03" xlink:href="#m76989bbc3d" y="128.241818"/>
      </g>
     </g>
     <g id="text_12">
      <!-- 60 -->
      <g transform="translate(47.58 135.840256)scale(0.2 -0.2)">
       <use xlink:href="#DejaVuSans-36"/>
       <use x="63.623047" xlink:href="#DejaVuSans-30"/>
      </g>
     </g>
    </g>
    <g id="ytick_5">
     <g id="line2d_12">
      <g>
       <use style="stroke:#000000;stroke-width:0.8;" x="80.03" xlink:href="#m76989bbc3d" y="76.045455"/>
      </g>
     </g>
     <g id="text_13">
      <!-- 80 -->
      <g transform="translate(47.58 83.643892)scale(0.2 -0.2)">
       <defs>
        <path d="M 2034 2216 
Q 1584 2216 1326 1975 
Q 1069 1734 1069 1313 
Q 1069 891 1326 650 
Q 1584 409 2034 409 
Q 2484 409 2743 651 
Q 3003 894 3003 1313 
Q 3003 1734 2745 1975 
Q 2488 2216 2034 2216 
z
M 1403 2484 
Q 997 2584 770 2862 
Q 544 3141 544 3541 
Q 544 4100 942 4425 
Q 1341 4750 2034 4750 
Q 2731 4750 3128 4425 
Q 3525 4100 3525 3541 
Q 3525 3141 3298 2862 
Q 3072 2584 2669 2484 
Q 3125 2378 3379 2068 
Q 3634 1759 3634 1313 
Q 3634 634 3220 271 
Q 2806 -91 2034 -91 
Q 1263 -91 848 271 
Q 434 634 434 1313 
Q 434 1759 690 2068 
Q 947 2378 1403 2484 
z
M 1172 3481 
Q 1172 3119 1398 2916 
Q 1625 2713 2034 2713 
Q 2441 2713 2670 2916 
Q 2900 3119 2900 3481 
Q 2900 3844 2670 4047 
Q 2441 4250 2034 4250 
Q 1625 4250 1398 4047 
Q 1172 3844 1172 3481 
z
" id="DejaVuSans-38" transform="scale(0.015625)"/>
       </defs>
       <use xlink:href="#DejaVuSans-38"/>
       <use x="63.623047" xlink:href="#DejaVuSans-30"/>
      </g>
     </g>
    </g>
    <g id="ytick_6">
     <g id="line2d_13">
      <g>
       <use style="stroke:#000000;stroke-width:0.8;" x="80.03" xlink:href="#m76989bbc3d" y="23.849091"/>
      </g>
     </g>
     <g id="text_14">
      <!-- 100 -->
      <g transform="translate(34.855 31.447528)scale(0.2 -0.2)">
       <use xlink:href="#DejaVuSans-31"/>
       <use x="63.623047" xlink:href="#DejaVuSans-30"/>
       <use x="127.246094" xlink:href="#DejaVuSans-30"/>
      </g>
     </g>
    </g>
    <g id="text_15">
     <!-- Accuracy (%) -->
     <g transform="translate(26.695625 220.479062)rotate(-90)scale(0.2 -0.2)">
      <defs>
       <path d="M 2188 4044 
L 1331 1722 
L 3047 1722 
L 2188 4044 
z
M 1831 4666 
L 2547 4666 
L 4325 0 
L 3669 0 
L 3244 1197 
L 1141 1197 
L 716 0 
L 50 0 
L 1831 4666 
z
" id="DejaVuSans-41" transform="scale(0.015625)"/>
       <path d="M 544 1381 
L 544 3500 
L 1119 3500 
L 1119 1403 
Q 1119 906 1312 657 
Q 1506 409 1894 409 
Q 2359 409 2629 706 
Q 2900 1003 2900 1516 
L 2900 3500 
L 3475 3500 
L 3475 0 
L 2900 0 
L 2900 538 
Q 2691 219 2414 64 
Q 2138 -91 1772 -91 
Q 1169 -91 856 284 
Q 544 659 544 1381 
z
M 1991 3584 
L 1991 3584 
z
" id="DejaVuSans-75" transform="scale(0.015625)"/>
       <path d="M 2631 2963 
Q 2534 3019 2420 3045 
Q 2306 3072 2169 3072 
Q 1681 3072 1420 2755 
Q 1159 2438 1159 1844 
L 1159 0 
L 581 0 
L 581 3500 
L 1159 3500 
L 1159 2956 
Q 1341 3275 1631 3429 
Q 1922 3584 2338 3584 
Q 2397 3584 2469 3576 
Q 2541 3569 2628 3553 
L 2631 2963 
z
" id="DejaVuSans-72" transform="scale(0.015625)"/>
       <path d="M 2194 1759 
Q 1497 1759 1228 1600 
Q 959 1441 959 1056 
Q 959 750 1161 570 
Q 1363 391 1709 391 
Q 2188 391 2477 730 
Q 2766 1069 2766 1631 
L 2766 1759 
L 2194 1759 
z
M 3341 1997 
L 3341 0 
L 2766 0 
L 2766 531 
Q 2569 213 2275 61 
Q 1981 -91 1556 -91 
Q 1019 -91 701 211 
Q 384 513 384 1019 
Q 384 1609 779 1909 
Q 1175 2209 1959 2209 
L 2766 2209 
L 2766 2266 
Q 2766 2663 2505 2880 
Q 2244 3097 1772 3097 
Q 1472 3097 1187 3025 
Q 903 2953 641 2809 
L 641 3341 
Q 956 3463 1253 3523 
Q 1550 3584 1831 3584 
Q 2591 3584 2966 3190 
Q 3341 2797 3341 1997 
z
" id="DejaVuSans-61" transform="scale(0.015625)"/>
       <path d="M 2059 -325 
Q 1816 -950 1584 -1140 
Q 1353 -1331 966 -1331 
L 506 -1331 
L 506 -850 
L 844 -850 
Q 1081 -850 1212 -737 
Q 1344 -625 1503 -206 
L 1606 56 
L 191 3500 
L 800 3500 
L 1894 763 
L 2988 3500 
L 3597 3500 
L 2059 -325 
z
" id="DejaVuSans-79" transform="scale(0.015625)"/>
       <path id="DejaVuSans-20" transform="scale(0.015625)"/>
       <path d="M 1984 4856 
Q 1566 4138 1362 3434 
Q 1159 2731 1159 2009 
Q 1159 1288 1364 580 
Q 1569 -128 1984 -844 
L 1484 -844 
Q 1016 -109 783 600 
Q 550 1309 550 2009 
Q 550 2706 781 3412 
Q 1013 4119 1484 4856 
L 1984 4856 
z
" id="DejaVuSans-28" transform="scale(0.015625)"/>
       <path d="M 4653 2053 
Q 4381 2053 4226 1822 
Q 4072 1591 4072 1178 
Q 4072 772 4226 539 
Q 4381 306 4653 306 
Q 4919 306 5073 539 
Q 5228 772 5228 1178 
Q 5228 1588 5073 1820 
Q 4919 2053 4653 2053 
z
M 4653 2450 
Q 5147 2450 5437 2106 
Q 5728 1763 5728 1178 
Q 5728 594 5436 251 
Q 5144 -91 4653 -91 
Q 4153 -91 3862 251 
Q 3572 594 3572 1178 
Q 3572 1766 3864 2108 
Q 4156 2450 4653 2450 
z
M 1428 4353 
Q 1159 4353 1004 4120 
Q 850 3888 850 3481 
Q 850 3069 1003 2837 
Q 1156 2606 1428 2606 
Q 1700 2606 1854 2837 
Q 2009 3069 2009 3481 
Q 2009 3884 1853 4118 
Q 1697 4353 1428 4353 
z
M 4250 4750 
L 4750 4750 
L 1831 -91 
L 1331 -91 
L 4250 4750 
z
M 1428 4750 
Q 1922 4750 2215 4408 
Q 2509 4066 2509 3481 
Q 2509 2891 2217 2550 
Q 1925 2209 1428 2209 
Q 931 2209 642 2551 
Q 353 2894 353 3481 
Q 353 4063 643 4406 
Q 934 4750 1428 4750 
z
" id="DejaVuSans-25" transform="scale(0.015625)"/>
       <path d="M 513 4856 
L 1013 4856 
Q 1481 4119 1714 3412 
Q 1947 2706 1947 2009 
Q 1947 1309 1714 600 
Q 1481 -109 1013 -844 
L 513 -844 
Q 928 -128 1133 580 
Q 1338 1288 1338 2009 
Q 1338 2731 1133 3434 
Q 928 4138 513 4856 
z
" id="DejaVuSans-29" transform="scale(0.015625)"/>
      </defs>
      <use xlink:href="#DejaVuSans-41"/>
      <use x="66.658203" xlink:href="#DejaVuSans-63"/>
      <use x="121.638672" xlink:href="#DejaVuSans-63"/>
      <use x="176.619141" xlink:href="#DejaVuSans-75"/>
      <use x="239.998047" xlink:href="#DejaVuSans-72"/>
      <use x="281.111328" xlink:href="#DejaVuSans-61"/>
      <use x="342.390625" xlink:href="#DejaVuSans-63"/>
      <use x="397.371094" xlink:href="#DejaVuSans-79"/>
      <use x="456.550781" xlink:href="#DejaVuSans-20"/>
      <use x="488.337891" xlink:href="#DejaVuSans-28"/>
      <use x="527.351562" xlink:href="#DejaVuSans-25"/>
      <use x="622.371094" xlink:href="#DejaVuSans-29"/>
     </g>
    </g>
   </g>
   <g id="line2d_14">
    <path clip-path="url(#p707ad5d50c)" d="M 98.643927 29.068738 
L 101.14244 34.288369 
L 103.640954 47.337463 
L 106.139467 42.117816 
L 108.637981 31.678554 
L 111.136495 42.117816 
L 113.635008 31.678554 
L 116.133522 34.288369 
L 118.632036 34.288369 
L 121.130549 39.508001 
L 123.629063 31.678554 
L 126.127577 31.678554 
L 128.62609 36.898185 
L 131.124604 29.068738 
L 133.623117 47.337463 
L 136.121631 42.117816 
L 138.620145 42.117816 
L 141.118658 31.678554 
L 143.617172 26.458922 
L 146.115686 36.898185 
L 148.614199 31.678554 
L 156.10974 39.508001 
L 158.608254 47.337463 
L 161.106767 31.678554 
L 163.605281 29.068738 
L 166.103795 44.727648 
L 168.602308 31.678554 
L 171.100822 29.068738 
L 176.097849 29.068738 
L 178.596363 31.678554 
L 181.094877 26.458922 
L 183.59339 34.288369 
L 186.091904 34.288369 
L 188.590417 26.458922 
L 191.088931 29.068738 
L 193.587445 34.288369 
L 196.085958 34.288369 
L 198.584472 36.898185 
L 201.082986 29.068738 
L 206.080013 29.068738 
L 208.578527 36.898185 
L 211.07704 31.678554 
L 218.572581 23.849091 
L 221.071095 39.508001 
L 223.569608 34.288369 
L 226.068122 23.849091 
L 231.065149 29.068738 
L 233.563663 29.068738 
L 238.56069 23.849091 
L 241.059204 29.068738 
L 243.557717 26.458922 
L 246.056231 31.678554 
L 248.554745 34.288369 
L 251.053258 29.068738 
L 253.551772 42.117816 
L 256.050286 26.458922 
L 258.548799 31.678554 
L 261.047313 29.068738 
L 263.545827 31.678554 
L 266.04434 29.068738 
L 271.041367 29.068738 
L 273.539881 39.508001 
L 276.038395 26.458922 
L 278.536908 26.458922 
L 281.035422 31.678554 
L 283.533936 29.068738 
L 286.032449 29.068738 
L 288.530963 26.458922 
L 291.029477 26.458922 
L 293.52799 23.849091 
L 296.026504 26.458922 
L 298.525017 34.288369 
L 301.023531 26.458922 
L 303.522045 26.458922 
L 306.020558 31.678554 
L 308.519072 26.458922 
L 311.017586 23.849091 
L 313.516099 29.068738 
L 316.014613 26.458922 
L 318.513127 29.068738 
L 321.01164 23.849091 
L 323.510154 23.849091 
L 326.008667 26.458922 
L 336.002722 26.458922 
L 338.501236 23.849091 
L 340.999749 29.068738 
L 343.498263 23.849091 
L 345.996777 23.849091 
L 348.49529 31.678554 
L 355.990831 31.678554 
L 358.489345 26.458922 
L 360.987858 23.849091 
L 363.486372 29.068738 
L 365.984886 26.458922 
L 368.483399 26.458922 
L 370.981913 23.849091 
L 373.480427 26.458922 
L 375.97894 31.678554 
L 378.477454 29.068738 
L 380.975967 23.849091 
L 383.474481 26.458922 
L 385.972995 26.458922 
L 388.471508 29.068738 
L 390.970022 26.458922 
L 398.465563 26.458922 
L 400.964077 29.068738 
L 403.46259 34.288369 
L 405.961104 29.068738 
L 410.958131 23.849091 
L 415.955158 23.849091 
L 420.952186 29.068738 
L 423.450699 26.458922 
L 425.949213 29.068738 
L 428.447727 29.068738 
L 430.94624 23.849091 
L 435.943267 23.849091 
L 440.940295 29.068738 
L 445.937322 23.849091 
L 448.435836 23.849091 
L 450.934349 31.678554 
L 453.432863 23.849091 
L 455.931377 23.849091 
L 458.42989 26.458922 
L 460.928404 23.849091 
L 463.426917 23.849091 
L 465.925431 26.458922 
L 468.423945 23.849091 
L 470.922458 29.068738 
L 470.922458 29.068738 
" style="fill:none;stroke:#008000;stroke-linecap:square;stroke-width:3;"/>
   </g>
   <g id="line2d_15">
    <path clip-path="url(#p707ad5d50c)" d="M 98.643927 44.727648 
L 101.14244 44.727648 
L 103.640954 70.82582 
L 108.637981 70.82582 
L 111.136495 62.996373 
L 113.635008 78.655283 
L 116.133522 81.265098 
L 118.632036 109.973102 
L 121.130549 120.412365 
L 123.629063 120.412365 
L 126.127577 149.120369 
L 128.62609 128.241828 
L 131.124604 183.048004 
L 133.623117 193.487274 
L 136.121631 250.903274 
L 138.620145 279.611273 
L 141.118658 271.781819 
L 143.617172 282.221091 
L 146.115686 284.830909 
L 470.922458 284.830909 
L 470.922458 284.830909 
" style="fill:none;stroke:#ffa500;stroke-dasharray:9,3,3,3;stroke-dashoffset:0;stroke-width:3;"/>
   </g>
   <g id="line2d_16">
    <path clip-path="url(#p707ad5d50c)" d="M 98.643927 23.849091 
L 101.14244 23.849091 
L 103.640954 42.117816 
L 106.139467 42.117816 
L 108.637981 62.996373 
L 111.136495 70.82582 
L 113.635008 104.753455 
L 116.133522 107.363271 
L 118.632036 180.438188 
L 121.130549 214.365823 
L 123.629063 253.513092 
L 126.127577 258.732729 
L 128.62609 266.562182 
L 131.124604 250.903274 
L 133.623117 258.732729 
L 136.121631 248.293454 
L 138.620145 261.342546 
L 141.118658 253.513092 
L 143.617172 261.342546 
L 146.115686 271.781819 
L 148.614199 263.952364 
L 151.112713 261.342546 
L 153.611227 256.122909 
L 158.608254 271.781819 
L 161.106767 261.342546 
L 163.605281 266.562182 
L 166.103795 263.952364 
L 168.602308 263.952364 
L 171.100822 250.903274 
L 173.599336 261.342546 
L 176.097849 266.562182 
L 178.596363 258.732729 
L 181.094877 266.562182 
L 183.59339 258.732729 
L 186.091904 256.122909 
L 188.590417 263.952364 
L 191.088931 266.562182 
L 193.587445 266.562182 
L 196.085958 253.513092 
L 198.584472 256.122909 
L 201.082986 261.342546 
L 203.581499 263.952364 
L 206.080013 258.732729 
L 208.578527 274.391637 
L 211.07704 256.122909 
L 213.575554 266.562182 
L 216.074067 256.122909 
L 218.572581 274.391637 
L 221.071095 263.952364 
L 223.569608 250.903274 
L 226.068122 256.122909 
L 228.566636 258.732729 
L 231.065149 250.903274 
L 233.563663 235.244364 
L 236.062177 258.732729 
L 238.56069 240.464 
L 241.059204 261.342546 
L 243.557717 250.903274 
L 248.554745 250.903274 
L 251.053258 263.952364 
L 253.551772 256.122909 
L 256.050286 266.562182 
L 258.548799 250.903274 
L 261.047313 266.562182 
L 263.545827 258.732729 
L 266.04434 261.342546 
L 268.542854 258.732729 
L 271.041367 253.513092 
L 273.539881 263.952364 
L 276.038395 243.073819 
L 278.536908 266.562182 
L 281.035422 269.172 
L 283.533936 253.513092 
L 286.032449 258.732729 
L 288.530963 258.732729 
L 291.029477 261.342546 
L 293.52799 248.293454 
L 296.026504 266.562182 
L 298.525017 250.903274 
L 301.023531 256.122909 
L 303.522045 256.122909 
L 306.020558 248.293454 
L 308.519072 263.952364 
L 311.017586 277.001455 
L 313.516099 274.391637 
L 316.014613 263.952364 
L 318.513127 243.073819 
L 321.01164 261.342546 
L 323.510154 248.293454 
L 326.008667 237.854184 
L 328.507181 269.172 
L 333.504208 269.172 
L 336.002722 274.391637 
L 338.501236 258.732729 
L 340.999749 263.952364 
L 343.498263 263.952364 
L 345.996777 266.562182 
L 348.49529 250.903274 
L 350.993804 245.683639 
L 353.492317 266.562182 
L 355.990831 266.562182 
L 358.489345 258.732729 
L 360.987858 261.342546 
L 365.984886 250.903274 
L 368.483399 256.122909 
L 370.981913 250.903274 
L 373.480427 271.781819 
L 375.97894 253.513092 
L 378.477454 256.122909 
L 380.975967 243.073819 
L 383.474481 253.513092 
L 385.972995 235.244364 
L 388.471508 261.342546 
L 390.970022 250.903274 
L 393.468536 245.683639 
L 395.967049 243.073819 
L 398.465563 269.172 
L 400.964077 263.952364 
L 403.46259 248.293454 
L 405.961104 253.513092 
L 408.459617 263.952364 
L 410.958131 263.952364 
L 413.456645 248.293454 
L 415.955158 263.952364 
L 418.453672 253.513092 
L 420.952186 263.952364 
L 423.450699 263.952364 
L 425.949213 269.172 
L 428.447727 253.513092 
L 430.94624 256.122909 
L 433.444754 237.854184 
L 435.943267 261.342546 
L 438.441781 269.172 
L 440.940295 261.342546 
L 443.438808 261.342546 
L 445.937322 263.952364 
L 448.435836 256.122909 
L 450.934349 261.342546 
L 453.432863 253.513092 
L 455.931377 253.513092 
L 458.42989 269.172 
L 460.928404 256.122909 
L 463.426917 248.293454 
L 465.925431 271.781819 
L 468.423945 258.732729 
L 470.922458 261.342546 
L 470.922458 261.342546 
" style="fill:none;stroke:#d2b48c;stroke-dasharray:11.1,4.8;stroke-dashoffset:0;stroke-width:3;"/>
   </g>
   <g id="line2d_17">
    <path clip-path="url(#p707ad5d50c)" d="M 98.643927 23.849091 
L 101.14244 23.849091 
L 103.640954 52.557095 
L 106.139467 206.536368 
L 108.637981 274.391637 
L 111.136495 284.830909 
L 470.922458 284.830909 
L 470.922458 284.830909 
" style="fill:none;stroke:#0000ff;stroke-dasharray:6,3,3,3;stroke-dashoffset:0;stroke-width:3;"/>
   </g>
   <g id="line2d_18">
    <path clip-path="url(#p707ad5d50c)" d="M 98.643927 23.849091 
L 121.130549 23.849091 
L 123.629063 26.458922 
L 126.127577 23.849091 
L 128.62609 23.849091 
L 131.124604 26.458922 
L 133.623117 23.849091 
L 136.121631 26.458922 
L 138.620145 23.849091 
L 141.118658 23.849091 
L 143.617172 26.458922 
L 146.115686 23.849091 
L 156.10974 23.849091 
L 158.608254 26.458922 
L 161.106767 23.849091 
L 166.103795 23.849091 
L 168.602308 29.068738 
L 171.100822 250.903274 
L 173.599336 258.732729 
L 176.097849 256.122909 
L 178.596363 263.952364 
L 181.094877 261.342546 
L 183.59339 253.513092 
L 186.091904 253.513092 
L 188.590417 263.952364 
L 191.088931 263.952364 
L 193.587445 248.293454 
L 196.085958 243.073819 
L 198.584472 261.342546 
L 201.082986 274.391637 
L 203.581499 258.732729 
L 206.080013 266.562182 
L 208.578527 243.073819 
L 211.07704 253.513092 
L 213.575554 261.342546 
L 216.074067 253.513092 
L 218.572581 253.513092 
L 221.071095 263.952364 
L 223.569608 266.562182 
L 226.068122 250.903274 
L 228.566636 248.293454 
L 231.065149 248.293454 
L 233.563663 266.562182 
L 236.062177 266.562182 
L 241.059204 250.903274 
L 243.557717 261.342546 
L 246.056231 253.513092 
L 248.554745 263.952364 
L 251.053258 253.513092 
L 253.551772 258.732729 
L 256.050286 256.122909 
L 258.548799 256.122909 
L 261.047313 266.562182 
L 263.545827 248.293454 
L 266.04434 256.122909 
L 268.542854 253.513092 
L 271.041367 248.293454 
L 273.539881 263.952364 
L 276.038395 256.122909 
L 278.536908 277.001455 
L 281.035422 261.342546 
L 283.533936 266.562182 
L 286.032449 274.391637 
L 288.530963 263.952364 
L 291.029477 258.732729 
L 293.52799 258.732729 
L 296.026504 263.952364 
L 298.525017 258.732729 
L 301.023531 245.683639 
L 306.020558 256.122909 
L 308.519072 250.903274 
L 311.017586 266.562182 
L 313.516099 256.122909 
L 316.014613 258.732729 
L 318.513127 248.293454 
L 321.01164 258.732729 
L 323.510154 243.073819 
L 326.008667 256.122909 
L 328.507181 253.513092 
L 331.005695 248.293454 
L 333.504208 263.952364 
L 336.002722 253.513092 
L 338.501236 258.732729 
L 340.999749 269.172 
L 343.498263 266.562182 
L 345.996777 250.903274 
L 348.49529 261.342546 
L 350.993804 258.732729 
L 353.492317 266.562182 
L 355.990831 271.781819 
L 358.489345 274.391637 
L 360.987858 243.073819 
L 363.486372 263.952364 
L 365.984886 248.293454 
L 368.483399 256.122909 
L 370.981913 253.513092 
L 373.480427 258.732729 
L 378.477454 263.952364 
L 380.975967 258.732729 
L 385.972995 258.732729 
L 388.471508 240.464 
L 390.970022 256.122909 
L 393.468536 256.122909 
L 395.967049 248.293454 
L 398.465563 245.683639 
L 400.964077 269.172 
L 403.46259 250.903274 
L 405.961104 263.952364 
L 408.459617 258.732729 
L 410.958131 248.293454 
L 413.456645 261.342546 
L 415.955158 261.342546 
L 418.453672 266.562182 
L 420.952186 269.172 
L 423.450699 232.634549 
L 425.949213 263.952364 
L 428.447727 274.391637 
L 430.94624 271.781819 
L 433.444754 253.513092 
L 435.943267 248.293454 
L 440.940295 263.952364 
L 445.937322 253.513092 
L 448.435836 258.732729 
L 450.934349 250.903274 
L 453.432863 266.562182 
L 455.931377 253.513092 
L 458.42989 258.732729 
L 460.928404 258.732729 
L 463.426917 261.342546 
L 468.423945 271.781819 
L 470.922458 245.683639 
L 470.922458 245.683639 
" style="fill:none;stroke:#ff0000;stroke-dasharray:19.2,4.8,3,4.8;stroke-dashoffset:0;stroke-width:3;"/>
   </g>
   <g id="line2d_19">
    <path clip-path="url(#p707ad5d50c)" d="M 98.643927 23.849091 
L 136.121631 23.849091 
L 138.620145 26.458922 
L 141.118658 23.849091 
L 166.103795 23.849091 
L 168.602308 256.122909 
L 171.100822 284.830909 
L 470.922458 284.830909 
L 470.922458 284.830909 
" style="fill:none;stroke:#808080;stroke-dasharray:9,3,6,3;stroke-dashoffset:0;stroke-width:3;"/>
   </g>
   <g id="patch_3">
    <path d="M 80.03 297.88 
L 80.03 10.8 
" style="fill:none;stroke:#000000;stroke-linecap:square;stroke-linejoin:miter;stroke-width:0.8;"/>
   </g>
   <g id="patch_4">
    <path d="M 489.536385 297.88 
L 489.536385 10.8 
" style="fill:none;stroke:#000000;stroke-linecap:square;stroke-linejoin:miter;stroke-width:0.8;"/>
   </g>
   <g id="patch_5">
    <path d="M 80.03 297.88 
L 489.536385 297.88 
" style="fill:none;stroke:#000000;stroke-linecap:square;stroke-linejoin:miter;stroke-width:0.8;"/>
   </g>
   <g id="patch_6">
    <path d="M 80.03 10.8 
L 489.536385 10.8 
" style="fill:none;stroke:#000000;stroke-linecap:square;stroke-linejoin:miter;stroke-width:0.8;"/>
   </g>
   <g id="legend_1">
    <g id="patch_7">
     <path d="M 345.331385 227.195 
L 478.336385 227.195 
Q 481.536385 227.195 481.536385 223.995 
L 481.536385 84.685 
Q 481.536385 81.485 478.336385 81.485 
L 345.331385 81.485 
Q 342.131385 81.485 342.131385 84.685 
L 342.131385 223.995 
Q 342.131385 227.195 345.331385 227.195 
z
" style="fill:#ffffff;opacity:0.8;stroke:#cccccc;stroke-linejoin:miter;"/>
    </g>
    <g id="line2d_20">
     <path d="M 348.531385 94.4425 
L 380.531385 94.4425 
" style="fill:none;stroke:#008000;stroke-linecap:square;stroke-width:3;"/>
    </g>
    <g id="line2d_21"/>
    <g id="text_16">
     <!-- SMU -->
     <g transform="translate(393.331385 100.0425)scale(0.16 -0.16)">
      <defs>
       <path d="M 3425 4513 
L 3425 3897 
Q 3066 4069 2747 4153 
Q 2428 4238 2131 4238 
Q 1616 4238 1336 4038 
Q 1056 3838 1056 3469 
Q 1056 3159 1242 3001 
Q 1428 2844 1947 2747 
L 2328 2669 
Q 3034 2534 3370 2195 
Q 3706 1856 3706 1288 
Q 3706 609 3251 259 
Q 2797 -91 1919 -91 
Q 1588 -91 1214 -16 
Q 841 59 441 206 
L 441 856 
Q 825 641 1194 531 
Q 1563 422 1919 422 
Q 2459 422 2753 634 
Q 3047 847 3047 1241 
Q 3047 1584 2836 1778 
Q 2625 1972 2144 2069 
L 1759 2144 
Q 1053 2284 737 2584 
Q 422 2884 422 3419 
Q 422 4038 858 4394 
Q 1294 4750 2059 4750 
Q 2388 4750 2728 4690 
Q 3069 4631 3425 4513 
z
" id="DejaVuSans-53" transform="scale(0.015625)"/>
       <path d="M 628 4666 
L 1569 4666 
L 2759 1491 
L 3956 4666 
L 4897 4666 
L 4897 0 
L 4281 0 
L 4281 4097 
L 3078 897 
L 2444 897 
L 1241 4097 
L 1241 0 
L 628 0 
L 628 4666 
z
" id="DejaVuSans-4d" transform="scale(0.015625)"/>
       <path d="M 556 4666 
L 1191 4666 
L 1191 1831 
Q 1191 1081 1462 751 
Q 1734 422 2344 422 
Q 2950 422 3222 751 
Q 3494 1081 3494 1831 
L 3494 4666 
L 4128 4666 
L 4128 1753 
Q 4128 841 3676 375 
Q 3225 -91 2344 -91 
Q 1459 -91 1007 375 
Q 556 841 556 1753 
L 556 4666 
z
" id="DejaVuSans-55" transform="scale(0.015625)"/>
      </defs>
      <use xlink:href="#DejaVuSans-53"/>
      <use x="63.476562" xlink:href="#DejaVuSans-4d"/>
      <use x="149.755859" xlink:href="#DejaVuSans-55"/>
     </g>
    </g>
    <g id="line2d_22">
     <path d="M 348.531385 117.9275 
L 380.531385 117.9275 
" style="fill:none;stroke:#ffa500;stroke-dasharray:9,3,3,3;stroke-dashoffset:0;stroke-width:3;"/>
    </g>
    <g id="line2d_23"/>
    <g id="text_17">
     <!-- SMU (Er.) -->
     <g transform="translate(393.331385 123.5275)scale(0.16 -0.16)">
      <defs>
       <path d="M 684 794 
L 1344 794 
L 1344 0 
L 684 0 
L 684 794 
z
" id="DejaVuSans-2e" transform="scale(0.015625)"/>
      </defs>
      <use xlink:href="#DejaVuSans-53"/>
      <use x="63.476562" xlink:href="#DejaVuSans-4d"/>
      <use x="149.755859" xlink:href="#DejaVuSans-55"/>
      <use x="222.949219" xlink:href="#DejaVuSans-20"/>
      <use x="254.736328" xlink:href="#DejaVuSans-28"/>
      <use x="293.75" xlink:href="#DejaVuSans-45"/>
      <use x="356.933594" xlink:href="#DejaVuSans-72"/>
      <use x="388.921875" xlink:href="#DejaVuSans-2e"/>
      <use x="420.708984" xlink:href="#DejaVuSans-29"/>
     </g>
    </g>
    <g id="line2d_24">
     <path d="M 348.531385 141.4125 
L 380.531385 141.4125 
" style="fill:none;stroke:#d2b48c;stroke-dasharray:11.1,4.8;stroke-dashoffset:0;stroke-width:3;"/>
    </g>
    <g id="line2d_25"/>
    <g id="text_18">
     <!-- VBU -->
     <g transform="translate(393.331385 147.0125)scale(0.16 -0.16)">
      <defs>
       <path d="M 1831 0 
L 50 4666 
L 709 4666 
L 2188 738 
L 3669 4666 
L 4325 4666 
L 2547 0 
L 1831 0 
z
" id="DejaVuSans-56" transform="scale(0.015625)"/>
       <path d="M 1259 2228 
L 1259 519 
L 2272 519 
Q 2781 519 3026 730 
Q 3272 941 3272 1375 
Q 3272 1813 3026 2020 
Q 2781 2228 2272 2228 
L 1259 2228 
z
M 1259 4147 
L 1259 2741 
L 2194 2741 
Q 2656 2741 2882 2914 
Q 3109 3088 3109 3444 
Q 3109 3797 2882 3972 
Q 2656 4147 2194 4147 
L 1259 4147 
z
M 628 4666 
L 2241 4666 
Q 2963 4666 3353 4366 
Q 3744 4066 3744 3513 
Q 3744 3084 3544 2831 
Q 3344 2578 2956 2516 
Q 3422 2416 3680 2098 
Q 3938 1781 3938 1306 
Q 3938 681 3513 340 
Q 3088 0 2303 0 
L 628 0 
L 628 4666 
z
" id="DejaVuSans-42" transform="scale(0.015625)"/>
      </defs>
      <use xlink:href="#DejaVuSans-56"/>
      <use x="68.408203" xlink:href="#DejaVuSans-42"/>
      <use x="137.011719" xlink:href="#DejaVuSans-55"/>
     </g>
    </g>
    <g id="line2d_26">
     <path d="M 348.531385 164.8975 
L 380.531385 164.8975 
" style="fill:none;stroke:#0000ff;stroke-dasharray:6,3,3,3;stroke-dashoffset:0;stroke-width:3;"/>
    </g>
    <g id="line2d_27"/>
    <g id="text_19">
     <!-- VBU (Er.) -->
     <g transform="translate(393.331385 170.4975)scale(0.16 -0.16)">
      <use xlink:href="#DejaVuSans-56"/>
      <use x="68.408203" xlink:href="#DejaVuSans-42"/>
      <use x="137.011719" xlink:href="#DejaVuSans-55"/>
      <use x="210.205078" xlink:href="#DejaVuSans-20"/>
      <use x="241.992188" xlink:href="#DejaVuSans-28"/>
      <use x="281.005859" xlink:href="#DejaVuSans-45"/>
      <use x="344.189453" xlink:href="#DejaVuSans-72"/>
      <use x="376.177734" xlink:href="#DejaVuSans-2e"/>
      <use x="407.964844" xlink:href="#DejaVuSans-29"/>
     </g>
    </g>
    <g id="line2d_28">
     <path d="M 348.531385 188.3825 
L 380.531385 188.3825 
" style="fill:none;stroke:#ff0000;stroke-dasharray:19.2,4.8,3,4.8;stroke-dashoffset:0;stroke-width:3;"/>
    </g>
    <g id="line2d_29"/>
    <g id="text_20">
     <!-- HBFU -->
     <g transform="translate(393.331385 193.9825)scale(0.16 -0.16)">
      <defs>
       <path d="M 628 4666 
L 1259 4666 
L 1259 2753 
L 3553 2753 
L 3553 4666 
L 4184 4666 
L 4184 0 
L 3553 0 
L 3553 2222 
L 1259 2222 
L 1259 0 
L 628 0 
L 628 4666 
z
" id="DejaVuSans-48" transform="scale(0.015625)"/>
       <path d="M 628 4666 
L 3309 4666 
L 3309 4134 
L 1259 4134 
L 1259 2759 
L 3109 2759 
L 3109 2228 
L 1259 2228 
L 1259 0 
L 628 0 
L 628 4666 
z
" id="DejaVuSans-46" transform="scale(0.015625)"/>
      </defs>
      <use xlink:href="#DejaVuSans-48"/>
      <use x="75.195312" xlink:href="#DejaVuSans-42"/>
      <use x="143.798828" xlink:href="#DejaVuSans-46"/>
      <use x="201.318359" xlink:href="#DejaVuSans-55"/>
     </g>
    </g>
    <g id="line2d_30">
     <path d="M 348.531385 211.8675 
L 380.531385 211.8675 
" style="fill:none;stroke:#808080;stroke-dasharray:9,3,6,3;stroke-dashoffset:0;stroke-width:3;"/>
    </g>
    <g id="line2d_31"/>
    <g id="text_21">
     <!-- HBFU (Er.) -->
     <g transform="translate(393.331385 217.4675)scale(0.16 -0.16)">
      <use xlink:href="#DejaVuSans-48"/>
      <use x="75.195312" xlink:href="#DejaVuSans-42"/>
      <use x="143.798828" xlink:href="#DejaVuSans-46"/>
      <use x="201.318359" xlink:href="#DejaVuSans-55"/>
      <use x="274.511719" xlink:href="#DejaVuSans-20"/>
      <use x="306.298828" xlink:href="#DejaVuSans-28"/>
      <use x="345.3125" xlink:href="#DejaVuSans-45"/>
      <use x="408.496094" xlink:href="#DejaVuSans-72"/>
      <use x="440.484375" xlink:href="#DejaVuSans-2e"/>
      <use x="472.271484" xlink:href="#DejaVuSans-29"/>
     </g>
    </g>
   </g>
  </g>
 </g>
 <defs>
  <clipPath id="p707ad5d50c">
   <rect height="287.08" width="409.506385" x="80.03" y="10.8"/>
  </clipPath>
 </defs>
</svg>
